<svg xmlns="http://www.w3.org/2000/svg" xmlns:xlink="http://www.w3.org/1999/xlink" id="Layer_1" width="141.732" height="141.732" x="0" y="0" enable-background="new 0 0 141.732 141.732" version="1.1" viewBox="0 0 141.732 141.732" xml:space="preserve"><path fill="#13A354" d="M65.466,121.756L65.466,121.756z" enable-background="new" opacity=".9"/><path fill="#13A354" d="M76.266,121.756L76.266,121.756z" enable-background="new" opacity=".9"/><path fill="#34A853" d="M48.816,81.758c0,13.483,9.3,21.85,22.05,21.85	c12.067,0,21.85-9.783,21.85-21.85V67.875V35.612v-5.56c0-12.067-9.783-21.85-21.85-21.85s-22.05,9.783-22.05,21.85v37.689	C48.816,67.741,48.816,81.758,48.816,81.758z" enable-background="new" opacity=".9"/><path fill="#34A853" d="M65.466,121.756v7.934H41.263c-3.032,0-5.49,2.458-5.49,5.49	v-0.941c0,3.035,2.458,5.493,5.49,5.493h59.206c3.032,0,5.49-2.458,5.49-5.493v0.941c0-3.032-2.458-5.49-5.49-5.49H76.266v-7.934	c18.165-2.619,32.122-18.135,32.122-37.023h-7.779c0,16.427-13.316,29.858-29.743,29.858c-16.387,0-29.67-13.431-29.67-29.858h-7.76	c0,18.888,13.923,34.404,32.044,37.023" enable-background="new" opacity=".9"/></svg>