<svg xmlns="http://www.w3.org/2000/svg" xmlns:svg="http://www.w3.org/2000/svg" xmlns:xlink="http://www.w3.org/1999/xlink" id="Layer_1" width="744" height="750" x="0" y="0" enable-background="new 0 0 744 750" version="1.1" viewBox="0 0 744 750" xml:space="preserve"><g id="layer1" opacity=".9"><g><g id="g7561_6_"><g id="path3346_8_"><path fill="#13A354" d="M71.165,150.852c-7.199-7.898-4.924-17.488,5.055-21.312c0,0,110.908-49.949,294.095-49.951 s294.137,49.946,294.137,49.946c9.979,3.823,12.198,13.362,4.931,21.197L457.103,390.096 c-7.267,7.835-13.212,22.989-13.212,33.675v234.403c0,10.686-8.67,18.304-19.267,16.927l-117.683-49.767 c-8.64-6.287-15.71-20.176-15.71-30.862v-172.09c0-10.686-5.89-25.892-13.089-33.789L71.165,150.852z"/></g></g></g></g></svg>