<svg xmlns="http://www.w3.org/2000/svg" xmlns:svg="http://www.w3.org/2000/svg" xmlns:xlink="http://www.w3.org/1999/xlink" id="Layer_1" width="744" height="750" x="0" y="0" enable-background="new 0 0 744 750" version="1.1" viewBox="0 0 744 750" xml:space="preserve"><g id="layer1" opacity=".9"><g><g id="g7561_6_"><g id="path3346_8_"><path fill="#13A354" d="M20.9,129.076c-8.449-9.27-5.779-20.525,5.933-25.013c0,0,130.17-58.624,345.172-58.626 s345.222,58.62,345.222,58.62c11.712,4.487,14.317,15.683,5.787,24.878L473.867,409.871 c-8.529,9.196-15.507,26.982-15.507,39.524v275.113c0,12.542-10.176,21.483-22.613,19.867l-138.122-58.41 c-10.141-7.379-18.438-23.68-18.438-36.222V447.764c0-12.542-6.913-30.389-15.362-39.657L20.9,129.076z"/></g></g></g></g></svg>