<svg xmlns="http://www.w3.org/2000/svg" xmlns:xlink="http://www.w3.org/1999/xlink" id="Layer_1" width="64" height="64" x="0" y="0" enable-background="new 0 0 64 64" version="1.1" viewBox="0 0 64 64" xml:space="preserve"><g xmlns:svg="http://www.w3.org/2000/svg" id="svg2383" display="none"><g id="layer1" display="inline"><path id="path2454" fill="#AFDDE9" stroke="#AFDDE9" stroke-linecap="round" stroke-linejoin="round" stroke-width=".227" d="M13.627,45.318L3.218,45.27V27.908V10.545h14.364h14.364V28v17.455l-3.955-0.044C25.816,45.386,19.352,45.345,13.627,45.318 L13.627,45.318z"/><path id="path2456" fill="#37C8AB" stroke="#37C8AB" stroke-linecap="round" stroke-linejoin="round" stroke-width=".228" d="M33.128,30.091V10.546h14.181H61.49v19.545v19.545H47.309H33.128V30.091z"/><path id="path2458" fill="#3771C8" stroke="#3771C8" stroke-linecap="round" stroke-linejoin="round" stroke-width=".227" d="M3.218,47.971v-1.666l6.03,0.12c3.316,0.066,9.78,0.12,14.364,0.12h8.334v1.545v1.545H17.582H3.218V47.971z"/></g><g id="layer2" display="inline"><text font-family="'ArialMT'" font-size="3.5" transform="matrix(1 0 0 1 9.4546 49.2727)">Chatbar</text><text font-family="'ArialMT'" font-size="12" transform="matrix(0 -1 1 0 51.7437 43.0049)">Tree</text><rect id="rect2393" width="59.636" height="40.545" x="2.545" y="9.818" fill="none" stroke="#000" stroke-linecap="round" stroke-linejoin="round" stroke-width="1.247"/><path id="path2403" fill="none" stroke="#000" d="M32.545,50.182V9.818"/><path id="path2405" fill="none" stroke="#000" d="M2.545,45.818l30,0.182"/><text font-family="'ArialMT'" font-size="12" transform="matrix(0 -1 1 0 20.5618 37.8232)">Log</text></g></g><g id="Layer_2"><rect width="62.764" height="39.228" x=".62" y="12.388" fill="#7F7F7F" enable-background="new" opacity=".25"/><g opacity=".75"><g><rect width="18.026" height="29.085" x="3.902" y="15.646" fill="#7F7F7F" enable-background="new" opacity=".5"/></g><rect width="37.026" height="29.002" x="22.987" y="15.698" fill="#7F7F7F" enable-background="new" opacity=".5"/></g><rect width="56.026" height="2.582" x="3.904" y="45.668" fill="#7F7F7F" enable-background="new"/></g></svg>