<svg xmlns="http://www.w3.org/2000/svg" xmlns:xlink="http://www.w3.org/1999/xlink" id="Layer_1" width="512" height="512" x="0" y="0" enable-background="new 0 0 512 512" version="1.1" viewBox="0 0 512 512" xml:space="preserve"><path fill="#9B59B6" d="M256.104,59.479c63.393,0,114.783,51.39,114.783,114.783s-51.39,114.783-114.783,114.783	s-114.783-51.39-114.783-114.783S192.711,59.479,256.104,59.479z M256.104,239.852c102.91,0,186.335,60.066,186.335,134.161	s-83.425,134.161-186.335,134.161S69.769,448.108,69.769,374.013S153.194,239.852,256.104,239.852z" opacity=".9"/><path fill="#9B59B6" d="M439.061,251.956l-33.312-22.57c39.665-56.785,25.166-137.337-26.215-173.23l22.57-32.313	C487.432,83.446,499.041,166.086,439.061,251.956z" opacity=".9"/><path fill="#9B59B6" d="M111.561,23.827l22.593,32.297c-51.367,35.93-68.125,116.506-28.431,173.255L73.426,251.97	C12.513,164.889,24.48,84.74,111.561,23.827z" opacity=".9"/></svg>